# xmcd CD database file
#
# Track frame offsets:
#	150
#	16512
#	36607
#	60875
#	79034
#	105270
#	123885
#	148611
#	178055
#	195985
#
# Disc length: 2879 seconds
#
# Revision: 0
# Processed by: cddbd v1.5.2PL0 Copyright (c) Steve Scherf et al.
# Submitted via: CDex 1.51
#
DISCID=710b3d0a
DTITLE=Rainer Fernes Project - Night Train
DYEAR=2002
DGENRE=Jazz
TTITLE0=Night Train
TTITLE1=Blues In Five
TTITLE2=Atmosphere
TTITLE3=For A Friend
TTITLE4=High Pressure
TTITLE5=Strange Tango
TTITLE6=Blue Kind of Latin
TTITLE7=Ninety's Nine
TTITLE8=No Way Home
TTITLE9=Contemplation
EXTD=YEAR: 2002
EXTT0=
EXTT1=
EXTT2=
EXTT3=
EXTT4=
EXTT5=
EXTT6=
EXTT7=
EXTT8=
EXTT9=
PLAYORDER=
